<svg width="25" height="24" viewBox="0 0 25 24" fill="none" xmlns="http://www.w3.org/2000/svg">
<g clip-path="url(#clip0_364_589)">
<path d="M12.325 10.306L13.436 8.369L17.21 8.127L17.342 7.891L13.854 7.649L14.674 6.235H21.144C23.134 6.235 24.604 6.95 24.031 9.035C23.861 9.673 23.052 11.268 20.675 11.934C21.182 11.994 22.435 12.55 22.215 13.991C21.831 16.549 18.525 17.765 16.682 17.765L9.04101 17.771L8.66101 16.291L12.666 16.011L12.803 15.774L8.45701 15.51L7.99001 13.755L14.168 13.392L14.305 13.161L3.20901 12.468L3.74301 11.543L15.691 10.768L15.829 10.537L12.325 10.306ZM17.325 10.691L18.425 10.685C19.163 10.68 19.927 10.345 20.208 9.667C20.467 9.035 20.12 8.496 19.658 8.501H18.591L17.325 10.691ZM16.055 12.886L14.729 15.191H15.994C16.583 15.191 17.634 14.899 17.958 14.063C18.26 13.282 17.705 12.886 17.32 12.886H16.055ZM6.41601 16.445L5.64601 17.76L0.156006 17.77L0.690006 16.847L6.41601 16.445ZM6.80101 6.229L11.218 6.235L11.554 7.483L6.27801 7.153L6.80101 6.229ZM11.801 8.474L12.285 10.306L4.74301 9.811L5.27101 8.891L11.801 8.474ZM7.96101 13.755L7.00401 15.416L1.68401 15.114L2.21801 14.19L7.96101 13.755Z" fill="black"/>
</g>
<defs>
<clipPath id="clip0_364_589">
<rect width="24" height="23.542" fill="white" transform="translate(0.156006 0.229004)"/>
</clipPath>
</defs>
</svg>
